<mxfile host="app.diagrams.net" modified="2023-05-06T06:47:58.356Z" agent="Mozilla/5.0 (Windows NT 10.0; Win64; x64) AppleWebKit/537.36 (KHTML, like Gecko) Chrome/112.0.0.0 Safari/537.36" etag="hc11_Shx0QJtOhkbh2zo" version="21.1.2" type="github">
  <diagram name="第 1 页" id="8nYY7QgfHz5HllUHiTgJ">
    <mxGraphModel dx="831" dy="547" grid="1" gridSize="10" guides="1" tooltips="1" connect="1" arrows="1" fold="1" page="1" pageScale="1" pageWidth="827" pageHeight="1169" math="0" shadow="0">
      <root>
        <mxCell id="0" />
        <mxCell id="1" parent="0" />
        <mxCell id="Bv7CUQELee6LEEVFWmNu-2" value="" style="points=[[0.35,0,0],[0.98,0.51,0],[1,0.71,0],[0.67,1,0],[0,0.795,0],[0,0.65,0]];verticalLabelPosition=bottom;sketch=0;html=1;verticalAlign=top;aspect=fixed;align=center;pointerEvents=1;shape=mxgraph.cisco19.user;fillColor=#005073;strokeColor=none;" vertex="1" parent="1">
          <mxGeometry x="22" y="280" width="70" height="70" as="geometry" />
        </mxCell>
        <mxCell id="Bv7CUQELee6LEEVFWmNu-3" value="https://nexus.hexagon.com/metrology-asset-manager" style="text;strokeColor=none;fillColor=none;html=1;align=center;verticalAlign=middle;whiteSpace=wrap;rounded=0;fontSize=16;" vertex="1" parent="1">
          <mxGeometry x="320" y="150" width="420" height="30" as="geometry" />
        </mxCell>
        <mxCell id="Bv7CUQELee6LEEVFWmNu-39" value="&lt;a style=&quot;box-sizing: border-box; cursor: pointer; color: rgb(77, 113, 255); outline: none; -webkit-tap-highlight-color: transparent; line-height: 22.5px; font-weight: 600; font-size: 15px; font-family: &amp;quot;PingFang SC&amp;quot;, &amp;quot;Segoe UI&amp;quot;, Arial, &amp;quot;Microsoft YaHei&amp;quot;, 微软雅黑, 宋体, &amp;quot;Malgun Gothic&amp;quot;, sans-serif; text-align: start;&quot; class=&quot;color_pc_blue_text&quot; data-keyword=&quot;identity authentication&quot;&gt;Identity Authentication&lt;/a&gt;" style="image;sketch=0;aspect=fixed;html=1;points=[];align=center;fontSize=12;image=img/lib/mscae/Managed_Identities.svg;" vertex="1" parent="1">
          <mxGeometry x="52" y="60" width="60.8" height="80" as="geometry" />
        </mxCell>
        <mxCell id="Bv7CUQELee6LEEVFWmNu-40" value="" style="group" vertex="1" connectable="0" parent="1">
          <mxGeometry x="140" y="210" width="400" height="210" as="geometry" />
        </mxCell>
        <mxCell id="Bv7CUQELee6LEEVFWmNu-26" value="" style="group;glass=0;rounded=0;points=[[0,0,0,0,0],[0,0.25,0,0,0],[0,0.5,0,0,0],[0,0.75,0,0,0],[0,1,0,0,0],[0.25,0,0,0,0],[0.25,1,0,0,0],[0.5,0,0,0,0],[0.5,1,0,0,0],[0.75,0,0,0,0],[0.75,1,0,0,0],[1,0,0,0,0],[1,0.25,0,0,0],[1,0.5,0,0,0],[1,0.75,0,0,0],[1,1,0,0,0]];verticalAlign=middle;horizontal=1;labelBorderColor=none;imageAlign=left;" vertex="1" connectable="0" parent="Bv7CUQELee6LEEVFWmNu-40">
          <mxGeometry width="347" height="210" as="geometry" />
        </mxCell>
        <mxCell id="Bv7CUQELee6LEEVFWmNu-27" value="Azure Front Door" style="image;aspect=fixed;html=1;points=[];align=center;fontSize=12;image=img/lib/azure2/networking/Front_Doors.svg;" vertex="1" parent="Bv7CUQELee6LEEVFWmNu-26">
          <mxGeometry x="31.545454545454547" y="70" width="67.38181818181819" height="59.45454545454546" as="geometry" />
        </mxCell>
        <mxCell id="Bv7CUQELee6LEEVFWmNu-28" value="App Service" style="image;aspect=fixed;html=1;points=[];align=center;fontSize=12;image=img/lib/azure2/app_services/App_Services.svg;" vertex="1" parent="Bv7CUQELee6LEEVFWmNu-26">
          <mxGeometry x="235.53939393939393" y="70" width="63.41818181818182" height="63.41818181818182" as="geometry" />
        </mxCell>
        <object c4Name="MAM" c4Application="RESTFUL API" label="&lt;font style=&quot;font-size: 16px&quot;&gt;&lt;b&gt;&lt;div style=&quot;text-align: left&quot;&gt;%c4Name%&lt;/div&gt;&lt;/b&gt;&lt;/font&gt;&lt;div style=&quot;text-align: left&quot;&gt;[%c4Application%]&lt;/div&gt;" placeholders="1" id="Bv7CUQELee6LEEVFWmNu-29">
          <mxCell style="rounded=1;fontSize=11;whiteSpace=wrap;html=1;dashed=1;arcSize=20;fillColor=none;strokeColor=#666666;fontColor=#333333;labelBackgroundColor=none;align=left;verticalAlign=bottom;labelBorderColor=none;spacingTop=0;spacing=10;dashPattern=8 4;metaEdit=1;rotatable=0;perimeter=rectanglePerimeter;noLabel=0;labelPadding=0;allowArrows=0;connectable=0;expand=0;recursiveResize=0;editable=1;pointerEvents=0;absoluteArcSize=1;points=[[0.25,0,0],[0.5,0,0],[0.75,0,0],[1,0.25,0],[1,0.5,0],[1,0.75,0],[0.75,1,0],[0.5,1,0],[0.25,1,0],[0,0.75,0],[0,0.5,0],[0,0.25,0]];" vertex="1" parent="Bv7CUQELee6LEEVFWmNu-26">
            <mxGeometry width="347" height="210" as="geometry" />
          </mxCell>
        </object>
        <mxCell id="Bv7CUQELee6LEEVFWmNu-30" style="edgeStyle=none;curved=1;rounded=0;orthogonalLoop=1;jettySize=auto;html=1;fontSize=12;startSize=8;endSize=8;" edge="1" parent="Bv7CUQELee6LEEVFWmNu-26" source="Bv7CUQELee6LEEVFWmNu-27" target="Bv7CUQELee6LEEVFWmNu-28">
          <mxGeometry relative="1" as="geometry" />
        </mxCell>
        <mxCell id="Bv7CUQELee6LEEVFWmNu-45" value="" style="image;aspect=fixed;html=1;points=[];align=center;fontSize=12;image=img/lib/azure2/identity/Azure_Information_Protection.svg;" vertex="1" parent="Bv7CUQELee6LEEVFWmNu-26">
          <mxGeometry x="10" y="2" width="13.55" height="18" as="geometry" />
        </mxCell>
        <mxCell id="Bv7CUQELee6LEEVFWmNu-32" value="" style="edgeStyle=none;orthogonalLoop=1;jettySize=auto;html=1;rounded=0;fontSize=12;startSize=8;endSize=8;curved=1;" edge="1" parent="Bv7CUQELee6LEEVFWmNu-40">
          <mxGeometry width="140" relative="1" as="geometry">
            <mxPoint x="350" y="104" as="sourcePoint" />
            <mxPoint x="400" y="104" as="targetPoint" />
            <Array as="points" />
          </mxGeometry>
        </mxCell>
        <mxCell id="Bv7CUQELee6LEEVFWmNu-59" value="" style="group" vertex="1" connectable="0" parent="1">
          <mxGeometry x="560" y="206" width="290" height="210" as="geometry" />
        </mxCell>
        <mxCell id="Bv7CUQELee6LEEVFWmNu-16" value="App Service AM" style="image;aspect=fixed;html=1;points=[];align=center;fontSize=12;image=img/lib/azure2/app_services/App_Services.svg;" vertex="1" parent="Bv7CUQELee6LEEVFWmNu-59">
          <mxGeometry x="39.99939393939394" y="67.29000000000002" width="63.41818181818182" height="63.41818181818182" as="geometry" />
        </mxCell>
        <object c4Name="Platform" c4Application="RESTFUL API" label="&lt;font style=&quot;font-size: 16px&quot;&gt;&lt;b&gt;&lt;div style=&quot;text-align: left&quot;&gt;%c4Name%&lt;/div&gt;&lt;/b&gt;&lt;/font&gt;&lt;div style=&quot;text-align: left&quot;&gt;[%c4Application%]&lt;/div&gt;" placeholders="1" id="Bv7CUQELee6LEEVFWmNu-17">
          <mxCell style="rounded=1;fontSize=11;whiteSpace=wrap;html=1;dashed=1;arcSize=20;fillColor=none;strokeColor=#666666;fontColor=#333333;labelBackgroundColor=none;align=left;verticalAlign=bottom;labelBorderColor=none;spacingTop=0;spacing=10;dashPattern=8 4;metaEdit=1;rotatable=0;perimeter=rectanglePerimeter;noLabel=0;labelPadding=0;allowArrows=0;connectable=0;expand=0;recursiveResize=0;editable=1;pointerEvents=0;absoluteArcSize=1;points=[[0.25,0,0],[0.5,0,0],[0.75,0,0],[1,0.25,0],[1,0.5,0],[1,0.75,0],[0.75,1,0],[0.5,1,0],[0.25,1,0],[0,0.75,0],[0,0.5,0],[0,0.25,0]];" vertex="1" parent="Bv7CUQELee6LEEVFWmNu-59">
            <mxGeometry width="290" height="210" as="geometry" />
          </mxCell>
        </object>
        <mxCell id="Bv7CUQELee6LEEVFWmNu-33" value="App Service EU" style="image;aspect=fixed;html=1;points=[];align=center;fontSize=12;image=img/lib/azure2/app_services/App_Services.svg;" vertex="1" parent="Bv7CUQELee6LEEVFWmNu-59">
          <mxGeometry x="179.99939393939394" y="67.29000000000002" width="63.41818181818182" height="63.41818181818182" as="geometry" />
        </mxCell>
        <mxCell id="Bv7CUQELee6LEEVFWmNu-55" value="" style="image;aspect=fixed;html=1;points=[];align=center;fontSize=12;image=img/lib/azure2/identity/Azure_Information_Protection.svg;" vertex="1" parent="Bv7CUQELee6LEEVFWmNu-59">
          <mxGeometry x="10" y="4" width="13.55" height="18" as="geometry" />
        </mxCell>
        <mxCell id="Bv7CUQELee6LEEVFWmNu-60" value="Text" style="text;strokeColor=none;fillColor=none;html=1;align=center;verticalAlign=middle;whiteSpace=wrap;rounded=0;fontSize=16;" vertex="1" parent="1">
          <mxGeometry x="250" y="250" width="60" height="30" as="geometry" />
        </mxCell>
        <mxCell id="Bv7CUQELee6LEEVFWmNu-73" value="" style="shape=flexArrow;endArrow=classic;startArrow=classic;html=1;rounded=1;fontSize=12;startSize=8;endSize=8;curved=1;shadow=0;arcSize=20;endWidth=20;fillColor=#dae8fc;strokeColor=#6c8ebf;" edge="1" parent="1">
          <mxGeometry width="100" height="100" relative="1" as="geometry">
            <mxPoint x="60" y="270" as="sourcePoint" />
            <mxPoint x="60" y="170" as="targetPoint" />
          </mxGeometry>
        </mxCell>
      </root>
    </mxGraphModel>
  </diagram>
</mxfile>
